<svg width="24" height="25" viewBox="0 0 24 25" fill="none" xmlns="http://www.w3.org/2000/svg">
<path d="M19.3958 22.5126H12C6.21 22.5126 1.5 18.0208 1.5 12.5C1.5 6.9793 6.21 2.48755 12 2.48755C17.79 2.48755 22.5 6.9793 22.5 12.5C22.4979 14.8882 21.612 17.1911 20.013 18.9651L20.613 19.5651C20.8542 19.8063 21.0184 20.1137 21.0849 20.4483C21.1514 20.783 21.1172 21.1298 20.9866 21.445C20.8559 21.7601 20.6348 22.0295 20.3511 22.219C20.0674 22.4085 19.7339 22.5096 19.3927 22.5096L19.3958 22.5126ZM12 3.98755C7.03725 3.98755 3 7.80655 3 12.5C3 17.1936 7.03725 21.0126 12 21.0126H19.3958C19.4403 21.0127 19.4839 20.9995 19.5209 20.9749C19.558 20.9502 19.5869 20.9151 19.604 20.874C19.6211 20.8329 19.6257 20.7876 19.617 20.7439C19.6084 20.7002 19.587 20.6601 19.5555 20.6285L18.4305 19.5035C18.3602 19.4332 18.3045 19.3496 18.2668 19.2576C18.2291 19.1655 18.2101 19.0669 18.2109 18.9674C18.2116 18.868 18.2322 18.7697 18.2713 18.6782C18.3104 18.5868 18.3673 18.504 18.4387 18.4348C19.2439 17.6695 19.886 16.7492 20.3261 15.7293C20.7663 14.7093 20.9955 13.6109 21 12.5C21 7.80655 16.9628 3.98755 12 3.98755Z" fill="black"/>
<path d="M13.125 17H10.875C10.6761 17 10.4853 16.921 10.3447 16.7803C10.204 16.6397 10.125 16.4489 10.125 16.25C10.125 16.0511 10.204 15.8603 10.3447 15.7197C10.4853 15.579 10.6761 15.5 10.875 15.5H13.125C13.3239 15.5 13.5147 15.579 13.6553 15.7197C13.796 15.8603 13.875 16.0511 13.875 16.25C13.875 16.4489 13.796 16.6397 13.6553 16.7803C13.5147 16.921 13.3239 17 13.125 17Z" fill="black"/>
<path d="M12 17C11.8011 17 11.6103 16.921 11.4696 16.7803C11.329 16.6397 11.25 16.4489 11.25 16.25V11.6495C11.107 11.5669 10.9953 11.4395 10.9321 11.287C10.8689 11.1345 10.8578 10.9654 10.9006 10.8059C10.9433 10.6464 11.0374 10.5055 11.1684 10.405C11.2994 10.3045 11.4599 10.25 11.625 10.25H12C12.1989 10.25 12.3896 10.329 12.5303 10.4697C12.671 10.6103 12.75 10.8011 12.75 11V16.25C12.75 16.4489 12.671 16.6397 12.5303 16.7803C12.3896 16.921 12.1989 17 12 17Z" fill="black"/>
<path d="M12 9.125C12.6213 9.125 13.125 8.62132 13.125 8C13.125 7.37868 12.6213 6.875 12 6.875C11.3787 6.875 10.875 7.37868 10.875 8C10.875 8.62132 11.3787 9.125 12 9.125Z" fill="black"/>
</svg>
