<svg id="Layer_1" enable-background="new 0 0 1024 1024" viewBox="0 0 1024 1024" xmlns="http://www.w3.org/2000/svg"><g><path d="m738.33 287.64h-452.65c-59 0-106.81 47.82-106.81 106.81v303.08c0 58.99 47.81 106.81 106.81 106.81h81.51v111.14c0 .7.79 1.11 1.36.7l166.87-110.62 41.85-.78h117.42l43.64-.44c58.99 0 106.81-47.82 106.81-106.81v-303.08c0-58.99-47.82-106.81-106.81-106.81zm-386.65 160.56c0-29.52 23.93-53.46 53.46-53.46 29.52 0 53.45 23.94 53.45 53.46 0 29.53-23.93 53.46-53.45 53.46-29.53 0-53.46-23.93-53.46-53.46zm157.86 267.14c-67.77 0-123.75-47.49-132.31-109h264.63c-8.57 61.51-64.54 109-132.32 109zm110-213.68c-29.52 0-53.46-23.93-53.46-53.46 0-29.52 23.94-53.46 53.46-53.46 29.53 0 53.46 23.94 53.46 53.46 0 29.53-23.93 53.46-53.46 53.46z"/><path d="m867.21 644.45v-191.32h26.48c19.39 0 35.11 15.72 35.11 35.11v121.11c0 19.39-15.72 35.11-35.11 35.11h-26.48z"/><path d="m95.2 609.35v-121.11c0-19.39 15.72-35.11 35.11-35.11h26.48v191.33h-26.48c-19.39-.01-35.11-15.73-35.11-35.11z"/><path d="m561.48 149.59c0 23.43-15.59 43.28-36.94 49.73v44.89h-30v-44.89c-21.35-6.45-36.94-26.3-36.94-49.73 0-28.63 23.3-51.93 51.94-51.93s51.94 23.3 51.94 51.93z"/></g></svg>