<svg width="49" height="48" viewBox="0 0 49 48" fill="none" xmlns="http://www.w3.org/2000/svg">
<path d="M45.3789 37.4512L27.6412 6.72753C26.9921 5.60361 25.793 4.91113 24.4949 4.91113C23.1973 4.91113 21.9981 5.60322 21.3487 6.72753L3.48307 37.6727C2.83442 38.7966 2.83442 40.1811 3.48307 41.305C4.13208 42.429 5.33125 43.1214 6.62929 43.1214H42.3615H42.372C44.378 43.1214 46.0043 41.4951 46.0043 39.4891C46.0036 38.734 45.7738 38.0325 45.3792 37.4516L45.3789 37.4512ZM22.4696 18.1688C22.4696 17.0473 23.3788 16.1389 24.4995 16.1389C25.6205 16.1389 26.5294 17.0474 26.5294 18.1688V30.2753C26.5294 31.3968 25.6201 32.3052 24.4995 32.3052C23.3784 32.3052 22.4696 31.3967 22.4696 30.2753V18.1688ZM26.3314 37.9229C25.8486 38.4058 25.1793 38.6859 24.4995 38.6859C23.8193 38.6859 23.1497 38.4058 22.6625 37.9233C22.18 37.4404 21.9049 36.7711 21.9049 36.0913C21.9049 35.4065 22.18 34.7368 22.6625 34.2543C23.1497 33.7718 23.8147 33.4967 24.4995 33.4967C25.1792 33.4967 25.8486 33.7718 26.3314 34.2543C26.819 34.7368 27.0941 35.4065 27.0941 36.0913C27.0941 36.7711 26.819 37.4404 26.3314 37.9229V37.9229Z" fill="#FF5050"/>
</svg>
