<svg width="22" height="22" viewBox="0 0 22 22" fill="none" xmlns="http://www.w3.org/2000/svg">
<path d="M6.19666 20.1667H15.8033C18.3333 20.1667 19.3417 18.6175 19.4608 16.7292L19.9375 9.15754C20.0658 7.17754 18.4892 5.50004 16.5 5.50004C15.9408 5.50004 15.4275 5.17921 15.1708 4.68421L14.5108 3.35504C14.0892 2.52087 12.9892 1.83337 12.0542 1.83337H9.95499C9.01082 1.83337 7.91082 2.52087 7.48916 3.35504L6.82916 4.68421C6.57249 5.17921 6.05916 5.50004 5.49999 5.50004C3.51082 5.50004 1.93416 7.17754 2.06249 9.15754L2.53916 16.7292C2.64916 18.6175 3.66666 20.1667 6.19666 20.1667Z" stroke="white" stroke-width="1.5" stroke-linecap="round" stroke-linejoin="round"/>
<path d="M9.625 7.33337H12.375" stroke="white" stroke-width="1.5" stroke-linecap="round" stroke-linejoin="round"/>
<path d="M10.9999 16.5C12.6408 16.5 13.9791 15.1616 13.9791 13.5208C13.9791 11.88 12.6408 10.5416 10.9999 10.5416C9.35909 10.5416 8.02075 11.88 8.02075 13.5208C8.02075 15.1616 9.35909 16.5 10.9999 16.5Z" stroke="white" stroke-width="1.5" stroke-linecap="round" stroke-linejoin="round"/>
</svg>
