<svg width="24" height="25" viewBox="0 0 24 25" fill="none" xmlns="http://www.w3.org/2000/svg">
<path d="M17.991 19.96C17.8387 19.9605 17.6898 19.9145 17.5642 19.8283C17.4387 19.742 17.3423 19.6196 17.288 19.4773C17.2338 19.3349 17.2241 19.1794 17.2604 19.0315C17.2966 18.8835 17.3771 18.7501 17.491 18.649C18.7379 17.5365 19.6174 16.0715 20.0129 14.448C20.4085 12.8245 20.3015 11.1191 19.7061 9.55782C19.1107 7.99649 18.055 6.6529 16.6788 5.70503C15.3027 4.75716 13.671 4.24974 12 4.25C11.3364 4.25058 10.675 4.32776 10.029 4.48C9.83542 4.52496 9.63188 4.49116 9.4632 4.38604C9.29451 4.28093 9.17448 4.11311 9.12953 3.9195C9.08458 3.72589 9.11837 3.52236 9.22349 3.35367C9.3286 3.18498 9.49642 3.06496 9.69003 3.02C10.447 2.84098 11.2222 2.75038 12 2.75C13.9757 2.74892 15.905 3.34836 17.5322 4.46885C19.1594 5.58934 20.4076 7.17795 21.1113 9.02405C21.815 10.8701 21.9409 12.8865 21.4724 14.8058C21.0039 16.7252 19.9631 18.4567 18.488 19.771C18.3512 19.8928 18.1743 19.9601 17.991 19.96Z" fill="black"/>
<path d="M12 22.25C9.99051 22.2507 8.02994 21.6303 6.38673 20.4737C4.74352 19.317 3.498 17.6807 2.82073 15.7888C2.14345 13.8969 2.06754 11.8419 2.60337 9.90521C3.1392 7.96849 4.26059 6.24476 5.81399 4.97002C6.37502 4.49943 6.99121 4.09882 7.64899 3.77702C7.82735 3.69023 8.03284 3.67763 8.22048 3.74199C8.40811 3.80634 8.56261 3.94241 8.65015 4.12041C8.7377 4.29841 8.75116 4.50385 8.6876 4.69175C8.62403 4.87966 8.48862 5.03473 8.31099 5.12302C7.75974 5.39289 7.2433 5.72868 6.77299 6.12302C5.32609 7.31005 4.32549 8.95351 3.93527 10.7839C3.54506 12.6143 3.78838 14.5229 4.62534 16.1968C5.46231 17.8708 6.84323 19.2106 8.54167 19.9967C10.2401 20.7827 12.1552 20.9683 13.973 20.523C14.564 20.3721 15.137 20.1579 15.682 19.884C15.8592 19.7947 16.0646 19.7793 16.2531 19.8411C16.4417 19.9029 16.5981 20.0369 16.688 20.2138C16.778 20.3906 16.7942 20.596 16.7331 20.7847C16.6719 20.9735 16.5385 21.1304 16.362 21.221C15.714 21.5472 15.0323 21.8014 14.329 21.979C13.5658 22.1595 12.7842 22.2504 12 22.25Z" fill="black"/>
<path d="M14.3709 13.5302C14.2162 13.5305 14.0651 13.4829 13.9384 13.3939C13.8118 13.305 13.7157 13.179 13.6635 13.0334C13.6112 12.8877 13.6053 12.7294 13.6466 12.5802C13.6878 12.431 13.7742 12.2983 13.8939 12.2002C14.425 11.7702 14.7933 11.1717 14.9379 10.5039C15.0826 9.83613 14.995 9.13894 14.6896 8.52771C14.3841 7.91648 13.8792 7.42783 13.2582 7.1426C12.6373 6.85738 11.9376 6.79266 11.2749 6.95917C11.0815 7.00571 10.8774 6.97349 10.7077 6.8696C10.538 6.7657 10.4165 6.59864 10.3699 6.40517C10.3234 6.21169 10.3556 6.00765 10.4595 5.83793C10.5634 5.66821 10.7305 5.54671 10.9239 5.50017C11.9166 5.25454 12.9632 5.3543 13.8916 5.78303C14.8199 6.21176 15.5746 6.94389 16.0312 7.85882C16.4879 8.77375 16.6193 9.81694 16.4039 10.8165C16.1884 11.8162 15.6389 12.7126 14.8459 13.3582C14.7125 13.4691 14.5445 13.53 14.3709 13.5302Z" fill="black"/>
<path d="M12 14.3701C11.7316 14.3712 11.4637 14.3464 11.2 14.2961L11.145 14.2891C10.6201 14.1921 10.1185 13.9959 9.66704 13.7111C9.00367 13.3163 8.45482 12.7552 8.07477 12.0833C7.69471 11.4114 7.49661 10.652 7.50004 9.88005C7.50004 9.73905 7.51104 9.58705 7.52304 9.44605C7.62007 8.39909 8.08282 7.41978 8.83004 6.68005C8.97222 6.54757 9.16027 6.47545 9.35457 6.47888C9.54887 6.4823 9.73425 6.56102 9.87167 6.69843C10.0091 6.83584 10.0878 7.02123 10.0912 7.21553C10.0946 7.40983 10.0225 7.59788 9.89004 7.74005C9.39337 8.23089 9.08416 8.88009 9.01604 9.57505C9.00904 9.67305 9.00004 9.78005 9.00004 9.88005C8.99712 10.393 9.12816 10.8977 9.38019 11.3444C9.63223 11.7912 9.99652 12.1643 10.437 12.4271C10.7161 12.6056 11.025 12.7323 11.349 12.8011C11.383 12.8011 11.417 12.8101 11.449 12.8171C11.7654 12.8822 12.0908 12.8904 12.41 12.8411C12.606 12.8068 12.8076 12.8519 12.9704 12.9663C13.1332 13.0807 13.2438 13.2551 13.278 13.4511C13.3123 13.647 13.2672 13.8486 13.1528 14.0114C13.0384 14.1742 12.864 14.2848 12.668 14.3191C12.4472 14.3549 12.2238 14.372 12 14.3701Z" fill="black"/>
<path d="M17 23.2501C16.8607 23.2501 16.7241 23.2113 16.6056 23.138C16.487 23.0646 16.3913 22.9598 16.329 22.8351L6.32904 2.83509C6.28414 2.74688 6.25715 2.65065 6.24961 2.55196C6.24208 2.45326 6.25416 2.35405 6.28515 2.26005C6.31614 2.16604 6.36543 2.0791 6.43018 2.00424C6.49494 1.92937 6.57387 1.86807 6.66243 1.82385C6.75099 1.77964 6.84742 1.75339 6.94617 1.74663C7.04492 1.73986 7.14403 1.75271 7.23779 1.78443C7.33156 1.81615 7.41811 1.86612 7.49247 1.93145C7.56683 1.99679 7.62752 2.07619 7.67104 2.16509L17.671 22.1651C17.7599 22.3431 17.7744 22.549 17.7114 22.7377C17.6484 22.9263 17.513 23.0822 17.335 23.1711C17.2311 23.2233 17.1164 23.2504 17 23.2501Z" fill="black"/>
<path d="M17.9899 19.9602C17.797 19.9601 17.6114 19.8857 17.4719 19.7523C17.3324 19.619 17.2497 19.437 17.2409 19.2442C17.2013 18.4037 16.9586 17.5854 16.5334 16.8593C16.1083 16.1332 15.5135 15.521 14.7999 15.0752C14.6315 14.9691 14.5122 14.8005 14.4681 14.6064C14.424 14.4123 14.4589 14.2086 14.5649 14.0402C14.671 13.8718 14.8397 13.7524 15.0338 13.7083C15.2279 13.6643 15.4315 13.6991 15.5999 13.8052C16.5187 14.3798 17.2843 15.1687 17.8312 16.1041C18.3781 17.0396 18.6899 18.0937 18.7399 19.1762C18.7445 19.2746 18.7296 19.3729 18.6962 19.4655C18.6627 19.5581 18.6113 19.6433 18.5449 19.716C18.4784 19.7887 18.3983 19.8476 18.3091 19.8894C18.2199 19.9311 18.1233 19.9548 18.0249 19.9592L17.9899 19.9602Z" fill="black"/>
<path d="M6.01002 19.96H5.97602C5.77739 19.951 5.5905 19.8634 5.45642 19.7166C5.32234 19.5697 5.25206 19.3757 5.26102 19.177C5.32658 17.7614 5.83685 16.4024 6.71925 15.2934C7.60165 14.1845 8.81125 13.382 10.176 13C10.4961 12.909 10.8232 12.8451 11.154 12.809C11.1792 12.8049 11.2045 12.8022 11.23 12.801C11.6828 12.7289 12.1437 12.7239 12.598 12.786C12.6943 12.7865 12.7896 12.8064 12.878 12.8445C12.9664 12.8827 13.0462 12.9383 13.1126 13.0081C13.179 13.0779 13.2307 13.1603 13.2644 13.2505C13.2982 13.3407 13.3133 13.4368 13.309 13.533C13.3002 13.7357 13.213 13.927 13.0658 14.0666C12.9186 14.2062 12.7229 14.2831 12.52 14.281C12.1551 14.2271 11.784 14.2301 11.42 14.29C11.3846 14.2959 11.3489 14.2992 11.313 14.3C11.0658 14.3278 10.8213 14.3759 10.582 14.444C9.52149 14.7411 8.58151 15.3647 7.89559 16.2264C7.20967 17.088 6.81268 18.1439 6.76102 19.244C6.75225 19.4372 6.66925 19.6195 6.52932 19.7529C6.38939 19.8863 6.20335 19.9605 6.01002 19.96Z" fill="black"/>
</svg>
