<svg width="22" height="18" viewBox="0 0 22 18" fill="none" xmlns="http://www.w3.org/2000/svg">
<path d="M2.30215 2.65887L8.83121 7.73025L8.83339 7.73211C9.55836 8.27894 9.92106 8.55252 10.3183 8.6582C10.6695 8.75162 11.0386 8.75162 11.3897 8.6582C11.7873 8.55242 12.1511 8.27805 12.8773 7.73025C12.8773 7.73025 17.0651 4.42467 19.4061 2.65887M1.23315 13.4346V5.07808C1.23315 3.84647 1.23315 3.23021 1.46618 2.7598C1.67116 2.34602 1.99799 2.00985 2.40028 1.79901C2.85763 1.55933 3.45677 1.55933 4.65416 1.55933H17.0545C18.2519 1.55933 18.8498 1.55933 19.3071 1.79901C19.7094 2.00985 20.0374 2.34602 20.2423 2.7598C20.4751 3.22975 20.4751 3.84527 20.4751 5.07446V13.4383C20.4751 14.6675 20.4751 15.2821 20.2423 15.7521C20.0374 16.1659 19.7094 16.5026 19.3071 16.7135C18.8503 16.9529 18.2527 16.9529 17.0576 16.9529H4.65065C3.4556 16.9529 2.85718 16.9529 2.40028 16.7135C1.99799 16.5026 1.67116 16.1659 1.46618 15.7521C1.23315 15.2817 1.23315 14.6662 1.23315 13.4346Z" stroke="white" stroke-width="1.9242" stroke-linecap="round" stroke-linejoin="round"/>
</svg>
