<svg width="24" height="25" viewBox="0 0 24 25" fill="none" xmlns="http://www.w3.org/2000/svg">
<path d="M3 7.19019H6C6 8.01744 6.67275 8.69019 7.5 8.69019H9C9.82725 8.69019 10.5 8.01744 10.5 7.19019H21C21.414 7.19019 21.75 6.85494 21.75 6.44019C21.75 6.02544 21.414 5.69019 21 5.69019H10.5C10.5 4.86294 9.82725 4.19019 9 4.19019H7.5C6.67275 4.19019 6 4.86294 6 5.69019H3C2.586 5.69019 2.25 6.02544 2.25 6.44019C2.25 6.85494 2.586 7.19019 3 7.19019Z" fill="#20462A"/>
<path d="M21 11.6902H16.5C16.5 10.8629 15.8273 10.1902 15 10.1902H13.5C12.6727 10.1902 12 10.8629 12 11.6902H3C2.586 11.6902 2.25 12.0254 2.25 12.4402C2.25 12.8549 2.586 13.1902 3 13.1902H12C12 14.0174 12.6727 14.6902 13.5 14.6902H15C15.8273 14.6902 16.5 14.0174 16.5 13.1902H21C21.414 13.1902 21.75 12.8549 21.75 12.4402C21.75 12.0254 21.414 11.6902 21 11.6902Z" fill="#20462A"/>
<path d="M21 17.6902H10.5C10.5 16.8629 9.82725 16.1902 9 16.1902H7.5C6.67275 16.1902 6 16.8629 6 17.6902H3C2.586 17.6902 2.25 18.0254 2.25 18.4402C2.25 18.8549 2.586 19.1902 3 19.1902H6C6 20.0174 6.67275 20.6902 7.5 20.6902H9C9.82725 20.6902 10.5 20.0174 10.5 19.1902H21C21.414 19.1902 21.75 18.8549 21.75 18.4402C21.75 18.0254 21.414 17.6902 21 17.6902Z" fill="#20462A"/>
</svg>
