<svg width="24" height="25" viewBox="0 0 24 25" fill="none" xmlns="http://www.w3.org/2000/svg">
<path fill-rule="evenodd" clip-rule="evenodd" d="M4 16.5V18.5C4 20.71 5.791 22.5 8 22.5H18C20.21 22.5 22 20.71 22 18.5C22 15.171 22 9.83 22 6.5C22 4.291 20.21 2.5 18 2.5C15.141 2.5 10.86 2.5 8 2.5C5.791 2.5 4 4.291 4 6.5V8.5C4 9.052 4.448 9.5 5 9.5C5.552 9.5 6 9.052 6 8.5C6 8.5 6 7.563 6 6.5C6 5.396 6.896 4.5 8 4.5H18C19.105 4.5 20 5.396 20 6.5V18.5C20 19.605 19.105 20.5 18 20.5C15.141 20.5 10.86 20.5 8 20.5C6.896 20.5 6 19.605 6 18.5C6 17.438 6 16.5 6 16.5C6 15.949 5.552 15.5 5 15.5C4.448 15.5 4 15.949 4 16.5ZM11.586 11.5L10.293 10.208C9.903 9.81699 9.903 9.184 10.293 8.793C10.684 8.403 11.317 8.403 11.707 8.793L14.707 11.793C15.098 12.184 15.098 12.817 14.707 13.208L11.707 16.208C11.317 16.598 10.684 16.598 10.293 16.208C9.903 15.817 9.903 15.184 10.293 14.793L11.586 13.5H3C2.448 13.5 2 13.052 2 12.5C2 11.949 2.448 11.5 3 11.5H11.586Z" fill="black"/>
</svg>
