<svg width="18" height="18" viewBox="0 0 18 18" fill="none" xmlns="http://www.w3.org/2000/svg">
<path d="M10.5 9.00005C10.5 9.29672 10.412 9.58673 10.2472 9.83341C10.0824 10.0801 9.84811 10.2723 9.57402 10.3859C9.29994 10.4994 8.99834 10.5291 8.70736 10.4712C8.41639 10.4134 8.14912 10.2705 7.93934 10.0607C7.72956 9.85093 7.5867 9.58366 7.52882 9.29269C7.47094 9.00171 7.50065 8.70012 7.61418 8.42603C7.72771 8.15194 7.91997 7.91767 8.16664 7.75285C8.41332 7.58802 8.70333 7.50005 9 7.50005C9.39782 7.50005 9.77936 7.65809 10.0607 7.93939C10.342 8.2207 10.5 8.60223 10.5 9.00005ZM14.8867 9.00005C16.1827 11.0663 16.752 13.05 16.3957 14.4638C16.3045 14.8729 16.1133 15.253 15.8392 15.5701C15.5652 15.8872 15.2168 16.1315 14.8252 16.281C13.0657 16.9778 10.6102 15.8903 9 14.8846C7.3935 15.8881 4.935 16.9785 3.17475 16.281C2.78321 16.1315 2.43483 15.8872 2.16077 15.5701C1.88671 15.253 1.6955 14.8729 1.60425 14.4638C1.248 13.05 1.81725 11.0663 3.11325 9.00005C1.81725 6.9338 1.248 4.95005 1.60425 3.5363C1.6955 3.12722 1.88671 2.74713 2.16077 2.43001C2.43483 2.11288 2.78321 1.86862 3.17475 1.71905C4.617 1.1483 6.7845 1.7348 9 3.11855C11.2148 1.7348 13.383 1.1483 14.8252 1.71905C15.2168 1.86862 15.5652 2.11288 15.8392 2.43001C16.1133 2.74713 16.3045 3.12722 16.3957 3.5363C16.752 4.95005 16.1827 6.9338 14.8867 9.00005ZM4.06425 7.6538C4.23375 7.43405 4.39725 7.2143 4.581 6.99605C5.49403 5.91317 6.51982 4.93063 7.641 4.06505C6.61425 3.4898 4.82025 2.6828 3.72525 3.1148C3.55615 3.17748 3.40604 3.28265 3.28939 3.42019C3.17274 3.55772 3.09348 3.72299 3.05925 3.90005C2.8635 4.6823 3.15 6.0308 4.06425 7.6538ZM7.65 13.9418C6.52621 13.0744 5.49814 12.0896 4.58325 11.0041C4.3995 10.7858 4.236 10.5661 4.0665 10.3463C3.1545 11.9693 2.8665 13.3178 3.0615 14.0963C3.09526 14.2739 3.1743 14.4398 3.29098 14.5779C3.40766 14.716 3.55802 14.8216 3.7275 14.8846C4.55175 15.2108 6.009 14.8613 7.65 13.9418ZM9 13.0756C10.2116 12.2009 11.3104 11.1799 12.2715 10.0358C12.5715 9.68405 12.8347 9.33905 13.0792 9.00005C12.8347 8.66105 12.5685 8.31605 12.2715 7.9643C11.3102 6.82056 10.2114 5.79984 9 4.9253C7.78862 5.79984 6.68981 6.82056 5.7285 7.9643C5.4285 8.31605 5.16525 8.66105 4.92075 9.00005C5.16525 9.33905 5.4315 9.68405 5.7285 10.0358C6.6898 11.1798 7.78861 12.2007 9 13.0756ZM13.9357 10.3501C13.7662 10.5698 13.6027 10.7896 13.419 11.0078C12.5032 12.0921 11.4744 13.0757 10.35 13.9418C11.988 14.8613 13.4452 15.2108 14.2717 14.8853C14.4412 14.8224 14.5916 14.7167 14.7083 14.5786C14.8249 14.4405 14.904 14.2747 14.9377 14.097C15.1365 13.3178 14.85 11.9693 13.9357 10.3501ZM14.9407 3.90005C14.907 3.72244 14.8279 3.55656 14.7113 3.41846C14.5946 3.28037 14.4442 3.17474 14.2747 3.1118C13.1797 2.6798 11.3857 3.4868 10.359 4.06205C11.4802 4.92763 12.506 5.91017 13.419 6.99305C13.6027 7.2113 13.7662 7.43105 13.9357 7.6508C14.85 6.0308 15.1365 4.6823 14.9407 3.90005Z" fill="#121010"/>
</svg>
