<svg width="12" height="18" viewBox="0 0 12 18" fill="none" xmlns="http://www.w3.org/2000/svg">
<path d="M5.99393 12.9502C7.50644 11.7431 8.64809 10.5832 9.41889 9.47031C10.1897 8.35804 10.5751 7.29288 10.5751 6.27485C10.5751 5.41679 10.4186 4.68584 10.1056 4.082C9.79324 3.47875 9.40813 2.99154 8.9503 2.6204C8.4919 2.24983 7.99364 1.98078 7.45554 1.81324C6.91744 1.64629 6.43023 1.56281 5.99393 1.56281C5.55763 1.56281 5.07043 1.64629 4.53233 1.81324C3.99422 1.98078 3.49626 2.24983 3.03844 2.6204C2.58003 2.99154 2.19434 3.47875 1.88137 4.082C1.56898 4.68584 1.41278 5.41679 1.41278 6.27485C1.41278 7.29288 1.79818 8.35804 2.56898 9.47031C3.33977 10.5832 4.48143 11.7431 5.99393 12.9502ZM5.99393 14.3246C5.87759 14.3246 5.76851 14.31 5.66671 14.281C5.56491 14.2519 5.47037 14.201 5.38311 14.1283C3.60883 12.7466 2.28538 11.4049 1.41278 10.1029C0.540182 8.80161 0.103882 7.52558 0.103882 6.27485C0.103882 5.2859 0.282183 4.41679 0.638786 3.66752C0.994807 2.91883 1.45292 2.28997 2.01313 1.78096C2.57276 1.27194 3.20539 0.890323 3.91104 0.636105C4.6161 0.381306 5.3104 0.253906 5.99393 0.253906C6.67747 0.253906 7.37206 0.381306 8.0777 0.636105C8.78276 0.890323 9.41511 1.27194 9.97474 1.78096C10.5349 2.28997 10.9934 2.91883 11.35 3.66752C11.706 4.41679 11.884 5.2859 11.884 6.27485C11.884 7.52558 11.4477 8.80161 10.5751 10.1029C9.70249 11.4049 8.37904 12.7466 6.60475 14.1283C6.53204 14.201 6.44129 14.2519 6.3325 14.281C6.22314 14.31 6.11028 14.3246 5.99393 14.3246ZM5.99393 7.67101C6.41569 7.67101 6.77578 7.52209 7.07421 7.22424C7.37206 6.92581 7.52098 6.56572 7.52098 6.14396C7.52098 5.7222 7.37206 5.36211 7.07421 5.06368C6.77578 4.76583 6.41569 4.61691 5.99393 4.61691C5.57218 4.61691 5.21208 4.76583 4.91365 5.06368C4.61581 5.36211 4.46688 5.7222 4.46688 6.14396C4.46688 6.56572 4.61581 6.92581 4.91365 7.22424C5.21208 7.52209 5.57218 7.67101 5.99393 7.67101ZM0.758332 17.2696C0.569269 17.2696 0.413073 17.2079 0.289746 17.0846C0.165836 16.9607 0.103882 16.8042 0.103882 16.6152C0.103882 16.4261 0.165836 16.2696 0.289746 16.1457C0.413073 16.0224 0.569269 15.9607 0.758332 15.9607H11.2295C11.4186 15.9607 11.5751 16.0224 11.699 16.1457C11.8223 16.2696 11.884 16.4261 11.884 16.6152C11.884 16.8042 11.8223 16.9607 11.699 17.0846C11.5751 17.2079 11.4186 17.2696 11.2295 17.2696H0.758332Z" fill="#101010"/>
</svg>
