<svg width="24" height="25" viewBox="0 0 24 25" fill="none" xmlns="http://www.w3.org/2000/svg">
<path d="M12 23.1075C11.7022 23.1073 11.4093 23.0308 11.1494 22.8853L7.7793 21.0133C6.10397 20.0817 4.708 18.7194 3.73587 17.0672C2.76374 15.4151 2.25075 13.5332 2.25 11.6163V6.4205C2.24971 5.98792 2.40995 5.57062 2.69969 5.2494C2.98942 4.92819 3.38804 4.72591 3.81836 4.68173C5.15905 4.5397 6.47855 4.24147 7.75 3.79309C8.9158 3.38108 10.0341 2.84548 11.0859 2.19543C11.3611 2.02715 11.6775 1.93815 12.0001 1.93823C12.3226 1.93832 12.6389 2.02749 12.9141 2.19592C13.966 2.84562 15.0843 3.38105 16.25 3.79309C17.5215 4.24148 18.8409 4.53972 20.1816 4.68176C20.612 4.72594 21.0106 4.92821 21.3003 5.24942C21.59 5.57063 21.7503 5.98793 21.75 6.4205V11.6163C21.7492 13.5332 21.2363 15.4151 20.2641 17.0673C19.292 18.7194 17.896 20.0817 16.2207 21.0133L12.8496 22.8859C12.59 23.031 12.2975 23.1073 12 23.1075ZM12 3.43661C11.9559 3.43641 11.9127 3.44841 11.875 3.47128C10.7319 4.17716 9.51668 4.75939 8.25 5.20709C6.8681 5.69474 5.43386 6.01889 3.97656 6.17291C3.91464 6.17829 3.857 6.20671 3.81504 6.25256C3.77308 6.29842 3.74987 6.35835 3.75 6.4205V11.6163C3.75059 13.2657 4.19198 14.885 5.02848 16.3066C5.86499 17.7281 7.06621 18.9003 8.50781 19.7018L11.8789 21.5743C11.9157 21.595 11.9572 21.606 11.9995 21.6061C12.0417 21.6061 12.0832 21.5954 12.1201 21.5748L15.4922 19.7018C16.9338 18.9003 18.135 17.7282 18.9715 16.3066C19.808 14.885 20.2494 13.2657 20.25 11.6163V6.4205C20.2501 6.35836 20.2269 6.29843 20.185 6.25258C20.143 6.20674 20.0854 6.17832 20.0234 6.17294C18.5661 6.01891 17.1319 5.69475 15.75 5.20709C14.4833 4.75939 13.2681 4.17763 12.125 3.47174C12.0875 3.44851 12.0441 3.43634 12 3.43661Z" fill="black"/>
<path d="M11.5 14.7502C11.3163 14.7505 11.139 14.683 11.002 14.5607L8.75197 12.5607C8.60398 12.4284 8.51448 12.2429 8.50307 12.0447C8.49167 11.8466 8.55929 11.652 8.69113 11.5036C8.82297 11.3552 9.00826 11.2652 9.20638 11.2532C9.40451 11.2412 9.59931 11.3082 9.74808 11.4396L11.4522 12.9543L14.7032 9.48699C14.7702 9.41387 14.8511 9.35477 14.9412 9.31314C15.0312 9.2715 15.1287 9.24814 15.2278 9.24442C15.327 9.2407 15.4259 9.25669 15.5188 9.29146C15.6117 9.32623 15.6968 9.37909 15.7692 9.44699C15.8415 9.51488 15.8997 9.59645 15.9403 9.68698C15.9809 9.7775 16.0031 9.87519 16.0057 9.97437C16.0083 10.0736 15.9911 10.1723 15.9553 10.2648C15.9195 10.3573 15.8656 10.4418 15.7969 10.5133L12.0469 14.5134C11.9769 14.5882 11.8922 14.6479 11.7981 14.6887C11.704 14.7294 11.6025 14.7503 11.5 14.7502Z" fill="black"/>
</svg>
