<svg width="24" height="25" viewBox="0 0 24 25" fill="none" xmlns="http://www.w3.org/2000/svg">
<g clip-path="url(#clip0_463_514)">
<path d="M12 0.5C6.30019 0.5 1.6875 5.11269 1.6875 10.8125V16.0625C1.6875 17.6133 2.94919 18.875 4.5 18.875C6.05081 18.875 7.3125 17.6133 7.3125 16.0625V12.6875C7.3125 11.1367 6.05081 9.875 4.5 9.875C4.18514 9.875 3.88256 9.92778 3.59967 10.0236C3.99877 5.73973 7.61358 2.375 12 2.375C16.3864 2.375 20.0012 5.73973 20.4003 10.0236C20.1174 9.92778 19.8149 9.875 19.5 9.875C17.9492 9.875 16.6875 11.1367 16.6875 12.6875V16.0625C16.6875 17.6133 17.9492 18.875 19.5 18.875C19.7838 18.875 20.0578 18.8323 20.3163 18.7538C19.9656 19.9077 18.892 20.75 17.625 20.75H14.6512C14.2642 19.6588 13.2222 18.875 12 18.875C10.4492 18.875 9.1875 20.1367 9.1875 21.6875C9.1875 23.2383 10.4492 24.5 12 24.5C13.2222 24.5 14.2642 23.7162 14.6512 22.625H17.625C20.2097 22.625 22.3125 20.5222 22.3125 17.9375V10.8125C22.3125 5.11269 17.6998 0.5 12 0.5ZM4.5 11.75C5.01694 11.75 5.4375 12.1706 5.4375 12.6875V16.0625C5.4375 16.5794 5.01694 17 4.5 17C3.98306 17 3.5625 16.5794 3.5625 16.0625V12.6875C3.5625 12.1706 3.98306 11.75 4.5 11.75ZM12 22.625C11.4831 22.625 11.0625 22.2044 11.0625 21.6875C11.0625 21.1706 11.4831 20.75 12 20.75C12.5169 20.75 12.9375 21.1706 12.9375 21.6875C12.9375 22.2044 12.5169 22.625 12 22.625ZM19.5 17C18.9831 17 18.5625 16.5794 18.5625 16.0625V12.6875C18.5625 12.1706 18.9831 11.75 19.5 11.75C20.0169 11.75 20.4375 12.1706 20.4375 12.6875V16.0625C20.4375 16.5794 20.0169 17 19.5 17Z" fill="black"/>
</g>
<defs>
<clipPath id="clip0_463_514">
<rect width="24" height="24" fill="white" transform="translate(0 0.5)"/>
</clipPath>
</defs>
</svg>
