<svg width="24" height="25" viewBox="0 0 24 25" fill="none" xmlns="http://www.w3.org/2000/svg">
<path d="M6.25924 8.62371H16.7806C17.2313 8.62371 17.5969 8.25806 17.5969 7.80734C17.5969 7.35662 17.2313 6.99097 16.7806 6.99097H6.25924C5.80852 6.99097 5.44287 7.35662 5.44287 7.80734C5.44287 8.25806 5.80852 8.62371 6.25924 8.62371Z" fill="black"/>
<path d="M13.32 12.8962C13.32 12.4455 12.9544 12.0798 12.5036 12.0798H6.25924C5.80852 12.0798 5.44287 12.4455 5.44287 12.8962C5.44287 13.3469 5.80852 13.7126 6.25924 13.7126H12.5036C12.9544 13.7126 13.32 13.3469 13.32 12.8962Z" fill="black"/>
<path d="M21.9095 15.4093C21.9972 14.4499 22.056 13.3319 22.0573 12.0287C22.0547 9.57656 21.8489 7.78097 21.6294 6.46146C21.2452 4.28733 19.2705 2.31256 17.0964 1.92844C15.7768 1.70888 13.9812 1.50307 11.5287 1.50049C9.07656 1.50307 7.28054 1.70888 5.96103 1.92844C3.78733 2.31256 1.81256 4.28733 1.42844 6.46146C1.20888 7.78097 1.0035 9.57656 1.00049 12.0287C1.0035 14.4808 1.20888 16.2768 1.42844 17.5964C1.81256 19.7705 3.78733 21.7452 5.96146 22.1294C7.28097 22.3489 9.07656 22.5543 11.5291 22.5573C12.8319 22.556 13.9499 22.4972 14.9089 22.4095C15.7614 23.0914 16.8424 23.4996 18.0189 23.4996C20.7696 23.4996 23 21.2696 23 18.5189C23 17.3424 22.5918 16.2614 21.9099 15.4093H21.9095ZM11.5291 20.9246C9.59475 20.9224 7.86404 20.7901 6.2386 20.5203C5.51632 20.3909 4.78459 19.9857 4.17833 19.3795C3.57206 18.7732 3.16731 18.0419 3.03755 17.3192C2.76772 15.6955 2.63581 13.9648 2.63323 12.0287C2.63538 10.0935 2.76772 8.36275 3.03755 6.73816C3.16688 6.01589 3.57206 5.28459 4.17833 4.67833C4.78459 4.07206 5.51589 3.66731 6.2386 3.53755C7.86318 3.26772 9.59389 3.13581 11.5291 3.13323C13.4635 3.13538 15.1942 3.26772 16.8196 3.53755C17.5419 3.66688 18.2732 4.07206 18.8799 4.67833C19.4862 5.28459 19.8909 6.01589 20.0207 6.7386C20.2905 8.36404 20.4224 10.0943 20.425 12.0291C20.4241 12.7553 20.4044 13.4518 20.3666 14.1255C19.6671 13.7508 18.8679 13.5386 18.0189 13.5386C15.2681 13.5386 13.0377 15.7685 13.0377 18.5193C13.0377 19.3683 13.2504 20.1671 13.6246 20.8666C12.9509 20.9044 12.2544 20.9241 11.5287 20.9246H11.5291ZM18.0189 21.8668C16.1726 21.8668 14.6704 20.3651 14.6704 18.5189C14.6704 16.6726 16.1726 15.1709 18.0189 15.1709C19.8651 15.1709 21.3673 16.6726 21.3673 18.5189C21.3673 20.3651 19.8651 21.8668 18.0189 21.8668Z" fill="black"/>
<path d="M18.4572 19.471C18.3532 19.4538 18.2118 19.4375 18.0189 19.4375C17.826 19.4375 17.6846 19.4538 17.5806 19.471C17.4096 19.5011 17.2541 19.6566 17.2236 19.8281C17.2064 19.932 17.1901 20.0734 17.1901 20.2663C17.1901 20.4593 17.2064 20.6006 17.2236 20.7046C17.2537 20.8756 17.4092 21.0311 17.5806 21.0617C17.6846 21.0788 17.826 21.0952 18.0189 21.0952C18.2118 21.0952 18.3532 21.0788 18.4572 21.0617C18.6282 21.0316 18.7837 20.876 18.8142 20.7046C18.8314 20.6006 18.8477 20.4593 18.8477 20.2663C18.8477 20.0734 18.8314 19.932 18.8142 19.8281C18.7841 19.6571 18.6286 19.5015 18.4572 19.471Z" fill="black"/>
<path d="M18.0184 18.9291C18.4691 18.9291 18.8348 18.5635 18.8348 18.1128V16.7507C18.8348 16.3 18.4691 15.9343 18.0184 15.9343C17.5677 15.9343 17.202 16.3 17.202 16.7507V18.1128C17.202 18.5635 17.5677 18.9291 18.0184 18.9291Z" fill="black"/>
</svg>
