<svg width="24" height="24" viewBox="0 0 24 24" fill="none" xmlns="http://www.w3.org/2000/svg">
<path d="M12.006 12.309C15.617 12.288 17.561 10.338 17.628 6.63798C17.566 3.07798 15.517 1.02398 11.994 1.00098C8.43301 1.02298 6.37201 3.17098 6.37201 6.63798C6.37201 10.209 8.43401 12.289 12.006 12.31V12.309ZM11.994 2.99998C14.431 3.01598 15.585 4.18298 15.628 6.63598C15.581 9.19498 14.495 10.293 12.006 10.308C9.51101 10.293 8.42401 9.19998 8.37201 6.65398C8.42201 4.14298 9.54301 3.01498 11.994 2.99998Z" fill="#171717"/>
<path d="M11.994 13.661C6.66599 13.695 3.79899 16.572 3.70299 21.983C3.69299 22.535 4.13299 22.991 4.68499 23.001C5.20099 22.982 5.69199 22.571 5.70299 22.019C5.77899 17.708 7.78299 15.688 11.994 15.662C16.162 15.689 18.224 17.768 18.298 22.018C18.308 22.564 18.754 23.001 19.298 23.001H19.316C19.868 22.991 20.308 22.536 20.299 21.984C20.207 16.651 17.263 13.696 11.995 13.662L11.994 13.661Z" fill="#171717"/>
</svg>
