<svg width="15" height="29" viewBox="0 0 15 29" fill="none" xmlns="http://www.w3.org/2000/svg">
<mask id="mask0_83_3600" style="mask-type:luminance" maskUnits="userSpaceOnUse" x="0" y="0" width="15" height="29">
<path d="M14.8295 0.511719H0.170654V28.9997H14.8295V0.511719Z" fill="white"/>
</mask>
<g mask="url(#mask0_83_3600)">
<path d="M13.8865 15.8675H9.57912C9.57912 17.3072 9.57912 18.7256 9.57912 20.144V28.6784H4.47134C4.46942 28.3804 4.46662 28.0825 4.46557 27.7849C4.4647 27.4758 4.46557 27.1668 4.46557 26.8577V15.8668H0.170654V10.8071C0.455664 10.7954 0.740849 10.8032 1.02568 10.8019C1.30562 10.8005 1.5866 10.8019 1.86724 10.8019H4.4654V10.5375C4.4654 9.40999 4.4619 8.28126 4.46697 7.15324C4.4576 6.34852 4.56965 5.54693 4.79939 4.77506C5.49923 2.54798 7.01806 1.20312 9.30129 0.691752C10.0575 0.534713 10.8314 0.477841 11.6027 0.522626C12.6224 0.565124 13.6415 0.621846 14.6608 0.673018C14.7133 0.67562 14.7658 0.684987 14.8297 0.692619V5.26839H14.5734L12.1187 5.26926C11.7132 5.26042 11.3086 5.31044 10.9177 5.41774C10.5899 5.49953 10.2942 5.67671 10.0688 5.92649C9.84336 6.17627 9.69847 6.48722 9.65278 6.81932C9.60592 7.09331 9.58251 7.37074 9.5828 7.64865C9.5744 8.62992 9.57912 9.6112 9.57965 10.5925C9.57965 10.653 9.58717 10.7139 9.59295 10.8006H14.5249C14.3111 12.498 14.101 14.1658 13.8865 15.868" fill="#43C0B9"/>
</g>
</svg>
