<svg width="19" height="19" viewBox="0 0 19 19" fill="none" xmlns="http://www.w3.org/2000/svg">
<path d="M4.2439 11.4696L3.58668 13.9231L1.18453 13.9739C0.466646 12.6424 0.0594482 11.1189 0.0594482 9.50003C0.0594482 7.93456 0.440168 6.45829 1.11502 5.15841H1.11554L3.25412 5.55048L4.19095 7.67623C3.99487 8.24786 3.888 8.8615 3.888 9.50003C3.88808 10.193 4.01361 10.857 4.2439 11.4696Z" fill="#FBBB00"/>
<path d="M18.7756 7.73635C18.8841 8.30743 18.9406 8.89721 18.9406 9.49997C18.9406 10.1759 18.8695 10.8351 18.7342 11.4711C18.2746 13.6352 17.0738 15.5248 15.4103 16.8621L15.4098 16.8615L12.7161 16.7241L12.3349 14.3442C13.4387 13.6969 14.3013 12.6838 14.7557 11.4711H9.70758V7.73635H14.8293H18.7756Z" fill="#518EF8"/>
<path d="M15.4097 16.8616L15.4102 16.8621C13.7924 18.1625 11.7372 18.9406 9.50001 18.9406C5.90482 18.9406 2.77907 16.9311 1.18454 13.9739L4.24391 11.4696C5.04116 13.5973 7.0937 15.112 9.50001 15.112C10.5343 15.112 11.5033 14.8324 12.3348 14.3443L15.4097 16.8616Z" fill="#28B446"/>
<path d="M15.5259 2.23284L12.4676 4.73665C11.6071 4.19876 10.5898 3.88803 9.50004 3.88803C7.03926 3.88803 4.94832 5.47217 4.19101 7.67621L1.11557 5.15838H1.11505C2.68624 2.1291 5.85141 0.0594444 9.50004 0.0594444C11.7907 0.0594444 13.8909 0.875389 15.5259 2.23284Z" fill="#F14336"/>
</svg>
