<svg width="29" height="29" viewBox="0 0 29 29" fill="none" xmlns="http://www.w3.org/2000/svg">
<mask id="mask0_83_3593" style="mask-type:luminance" maskUnits="userSpaceOnUse" x="0" y="0" width="29" height="29">
<path d="M28.1706 0.511719H0V28.6823H28.1706V0.511719Z" fill="white"/>
</mask>
<g mask="url(#mask0_83_3593)">
<path d="M7.2101 0.511719H20.9635C21.2513 0.557677 21.5424 0.587968 21.8262 0.651684C25.0175 1.36885 27.0638 3.29974 27.9395 6.45188C28.0536 6.86279 28.095 7.29355 28.1694 7.71511V21.4622C28.1529 21.5512 28.1305 21.6395 28.1207 21.7294C28.0505 22.497 27.8527 23.2476 27.5355 23.9502C26.1049 26.9745 23.7093 28.6044 20.3593 28.6505C16.1793 28.709 11.9976 28.6679 7.81682 28.6629C6.22728 28.6856 4.67165 28.2027 3.37454 27.2841C1.13574 25.6893 0.0134186 23.4925 0.00631259 20.7448C-0.00441603 16.6393 -0.00330137 12.5337 0.00965658 8.42789C0.0010638 7.89649 0.0489846 7.36568 0.152612 6.84441C0.855476 3.65529 2.79771 1.6189 5.94461 0.742766C6.35592 0.628287 6.78771 0.586924 7.2101 0.511719ZM14.0761 26.1698C16.1111 26.1698 18.1462 26.1698 20.1814 26.1698C20.8238 26.1854 21.4641 26.0909 22.0745 25.8905C24.3146 25.0979 25.6683 23.1683 25.6716 20.7367C25.6775 16.6409 25.6846 12.5452 25.661 8.44941C25.6636 7.82756 25.5692 7.2091 25.3813 6.61628C24.6304 4.36807 22.6723 3.01375 20.2437 3.00999C16.1369 3.00351 12.03 2.99641 7.92341 3.02085C7.30137 3.01998 6.68309 3.11713 6.09132 3.30872C3.85775 4.06307 2.51054 5.99396 2.50364 8.40011C2.49166 12.5232 2.49124 16.6463 2.50239 20.7697C2.50511 22.6153 3.24078 24.1059 4.74035 25.1963C5.6825 25.8637 6.81663 26.2059 7.97085 26.1711C10.0061 26.1665 12.0411 26.1698 14.0761 26.1698Z" fill="#43C0B9"/>
<path d="M21.3461 14.6005C21.3439 16.0352 20.9162 17.437 20.1171 18.6288C19.318 19.8206 18.1833 20.7488 16.8565 21.2961C15.5297 21.8434 14.0704 21.9853 12.6629 21.7037C11.2555 21.4222 9.96315 20.7299 8.94927 19.7144C7.93539 18.6988 7.24549 17.4056 6.96678 15.9982C6.68806 14.5908 6.83305 13.1325 7.38342 11.8074C7.93378 10.4824 8.8648 9.35019 10.0588 8.55395C11.2528 7.7577 12.6562 7.33316 14.0915 7.33399C16.0154 7.34302 17.8577 8.11198 19.2167 9.47319C20.5757 10.8344 21.3411 12.6775 21.3461 14.6005ZM18.8421 14.5785C18.84 13.6386 18.5591 12.7203 18.035 11.9399C17.5108 11.1595 16.7669 10.552 15.8973 10.1942C15.0277 9.83643 14.0714 9.74441 13.1495 9.92982C12.2276 10.1152 11.3814 10.5697 10.7179 11.2358C10.0544 11.9019 9.60341 12.7498 9.42197 13.6721C9.24054 14.5944 9.3368 15.5497 9.69858 16.4174C10.0604 17.285 10.6714 18.0259 11.4545 18.5464C12.2375 19.0669 13.1574 19.3436 14.0978 19.3415C15.3584 19.3375 16.566 18.8337 17.4554 17.9408C18.3449 17.0478 18.8436 15.8386 18.8421 14.5785Z" fill="#43C0B9"/>
<path d="M21.65 5.22461C22.0114 5.22624 22.3642 5.33504 22.6637 5.53724C22.9632 5.73944 23.1959 6.02594 23.3324 6.36045C23.4689 6.69496 23.5029 7.06243 23.4303 7.41631C23.3577 7.77019 23.1816 8.09457 22.9244 8.34836C22.6672 8.60214 22.3404 8.77391 21.9854 8.84192C21.6305 8.90992 21.2633 8.8711 20.9304 8.73036C20.5976 8.58963 20.314 8.35331 20.1156 8.05135C19.9172 7.74939 19.8129 7.39537 19.816 7.03413C19.8235 6.55248 20.0199 6.09305 20.3629 5.75465C20.7059 5.41624 21.168 5.22592 21.65 5.22461Z" fill="#43C0B9"/>
</g>
</svg>
